<svg xmlns="http://www.w3.org/2000/svg" width="1600" height="1000" viewBox="0 0 1600 1000">
  <defs>
    <linearGradient id="bg" x1="0" y1="0" x2="1" y2="1">
      <stop offset="0%" stop-color="#eef5fb"/>
      <stop offset="55%" stop-color="#f7fbff"/>
      <stop offset="100%" stop-color="#efe6ec"/>
    </linearGradient>
    <radialGradient id="rose" cx="70%" cy="30%" r="50%">
      <stop offset="0%" stop-color="#c4818e" stop-opacity=".34"/>
      <stop offset="100%" stop-color="#c4818e" stop-opacity="0"/>
    </radialGradient>
  </defs>
  <rect width="1600" height="1000" fill="url(#bg)"/>
  <rect width="1600" height="1000" fill="url(#rose)"/>
  <g fill="none" stroke="#7f9dbd" stroke-opacity=".28" stroke-width="2">
    <circle cx="410" cy="460" r="160"/>
    <circle cx="750" cy="360" r="210"/>
    <circle cx="1050" cy="540" r="185"/>
    <path d="M570 440 C650 360 720 430 820 380 S950 420 980 510"/>
    <path d="M520 590 C690 690 850 610 1010 680"/>
  </g>
  <g fill="#c4818e" opacity=".72">
    <circle cx="410" cy="460" r="16"/>
    <circle cx="750" cy="360" r="16"/>
    <circle cx="1050" cy="540" r="16"/>
    <circle cx="820" cy="380" r="10"/>
    <circle cx="980" cy="510" r="10"/>
  </g>
  <text x="120" y="795" fill="#231d24" font-family="Georgia, serif" font-size="82" font-weight="600">Cultural Heritage Systems Map</text>
  <text x="124" y="860" fill="#4f5564" font-family="Arial, sans-serif" font-size="28" letter-spacing="4">ADVANCED HCI · SYSTEMS THINKING · RESEARCH WEBSITE</text>
</svg>